<svg id="Grupo_1677" data-name="Grupo 1677" xmlns="http://www.w3.org/2000/svg" width="188.4" height="67.081" viewBox="0 0 188.4 67.081">
  <path id="Uni達o_4" data-name="Uni達o 4" d="M74.21,66.974c-1.023-.017-3.033-.048-4.473-.069s-3.264-.052-4.065-.069c-5.343-.114-6.458-.143-7.55-.177l-3.6-.1c-3.647-.1-9.455-.3-10.86-.378-.383-.02-1.243-.059-1.916-.087-1.788-.077-4.635-.212-6.1-.292-2.544-.139-5.912-.341-6.446-.381-.221-.017-1.138-.084-2.033-.146-2.057-.14-3.763-.267-4.066-.309-.128-.017-.441-.049-.7-.073-.749-.066-2.044-.233-3.138-.391-1.609-.129-1.944-.161-2.273-.2-.2-.024-.692-.074-1.088-.118-1.1-.118-2.853-.347-3.277-.429-.116-.023-.376-.067-.578-.1-.539-.087-1.4-.241-1.841-.33-.768-.158-1.785-.387-1.945-.433-.067-.02-.345-.095-.614-.165a12.452,12.452,0,0,1-1.227-.351c-.038-.019-.133-.055-.209-.083a6.915,6.915,0,0,1-1.515-.8.186.186,0,0,0-.076-.059.542.542,0,0,1-.155-.11c-.066-.059-.168-.142-.221-.185a6.511,6.511,0,0,1-1.087-1.24c-.046-.075-.134-.217-.193-.315a6.6,6.6,0,0,1-.312-.611,11.347,11.347,0,0,1-.88-3.11c-.1-.5-.234-1.28-.294-1.673-.032-.186-.077-.477-.105-.65-.13-.772-.249-1.615-.351-2.481-.028-.24-.077-.61-.105-.827C.865,49.82.8,49.209.71,48.277c-.026-.292-.066-.674-.087-.851S.564,46.788.536,46.4s-.07-.846-.088-1.02C.416,45.1.354,44.205.273,42.844c-.018-.271-.046-.882-.067-1.359S.15,40.371.132,40.068c-.048-.749-.1-2.894-.126-5.3-.024-1.925.021-5.457.091-7.106.091-2.225.273-5.378.347-6.1.022-.2.063-.673.092-1.063s.063-.772.073-.847.047-.457.084-.847c.077-.8.164-1.579.3-2.658.137-1.114.351-2.649.4-2.874.017-.074.046-.271.067-.432s.063-.409.091-.551.077-.4.105-.571c.186-1.031.445-2.291.5-2.441.018-.044.074-.22.129-.394A6.944,6.944,0,0,1,4.083,5.947,6.951,6.951,0,0,1,6.916,4.4c.021,0,.185-.048.368-.095s.46-.121.614-.165c.556-.15,1.542-.374,2.12-.484.164-.032.424-.087.577-.118s.393-.079.527-.1.378-.067.543-.1c.781-.15,2.64-.413,3.891-.551.3-.032.7-.075.894-.1.768-.086,1.858-.185,2.856-.251.863-.06,1.568-.106,2.207-.142,1.053-.124,2.133-.226,3.215-.3.07,0,.615-.042,1.219-.083s1.521-.108,2.033-.146c1.847-.133,5.111-.33,7.027-.427.546-.028,1.406-.077,1.916-.1s1.3-.069,1.743-.088,1.253-.058,1.8-.087C43.058.924,49.214.691,53.361.57,54.348.541,55.684.5,56.322.483,58.866.406,62.479.32,65.788.261,72.943.129,76.847.073,82.167.035,91.017-.031,105.28,0,113.006.1c4,.053,11.22.178,13.822.244.766.016,2.021.048,2.788.065s1.917.052,2.554.073,1.951.058,2.9.087c3.426.1,5.109.153,5.459.173.2.014,1.137.052,2.091.087,4.75.181,12.045.536,14.287.7q.781.052,1.568.1c1.847.114,2.707.17,3.137.208q.928.072,1.859.14c1.26.092,2.421.2,3.5.32,1.2.069,2.74.173,3.373.233.232.019.61.055.842.074s.578.059.771.083.589.067.876.1c1.034.114,1.543.173,1.648.2.059.015.343.059.631.1,1.433.205,3.635.607,4.311.791.158.039.315.078.473.114.557.131.817.194.947.237.186.053.374.106.56.157A6.934,6.934,0,0,1,184.1,5.73a7.481,7.481,0,0,1,1.269,1.485c.119.2.232.39.245.413a11.01,11.01,0,0,1,.565,1.417c.024.087.056.193.074.237.038.091.154.6.252,1.1.038.193.1.511.14.709.273,1.4.592,3.448.764,4.92.039.323.078.638.088.694.025.122.137,1.161.228,2.1.037.39.077.752.087.807s.043.41.071.787.059.76.07.847.049.626.088,1.2.084,1.271.105,1.554.049.893.071,1.359.052,1.122.07,1.456c.157,2.953.157,10.465,0,13.327-.021.322-.056,1.122-.088,1.772s-.066,1.33-.088,1.516-.049.625-.07.984-.053.807-.074,1-.055.673-.084,1.063-.067.815-.088.945-.06.492-.087.807c-.057.637-.182,1.846-.211,2.028-.01.063-.049.366-.088.669-.175,1.378-.368,2.728-.4,2.815-.01.032-.042.216-.069.413-.112.768-.421,2.394-.585,3.082a9.305,9.305,0,0,1-.417,1.328c-.014.019-.049.117-.084.208a2.8,2.8,0,0,1-.179.386,1.6,1.6,0,0,0-.123.245,1.405,1.405,0,0,1-.133.224c-.071.106-.155.24-.186.295a7.463,7.463,0,0,1-.765.921,3.951,3.951,0,0,1-.648.555.986.986,0,0,0-.154.126,9.356,9.356,0,0,1-1.322.7q-.176.067-.35.138a12.749,12.749,0,0,1-1.227.351c-.27.07-.546.145-.613.165-.162.047-1.178.275-1.946.433-.7.145-1.928.354-2.821.483-.242.036-.611.091-.824.126-.746.117-2.951.358-4.452.488l-.879.073c-1,.143-2.161.3-2.676.348-.387.039-.776.08-1.162.121-.312.042-2.056.173-4.064.309-.9.062-1.813.128-2.033.146-.535.041-3.9.243-6.447.381-2.323.128-6.389.313-9.35.427-.8.032-2.021.079-2.729.111-2.474.1-9.782.316-14.752.43-3.879.087-4.786.1-7.259.139-1.44.021-3.45.049-4.472.069-4.077.071-12.027.107-19.992.107S78.345,67.045,74.21,66.974Z" transform="translate(0 0)" fill="#fff"/>
  <path id="Uni達o_3" data-name="Uni達o 3" d="M69.969,56.225c-.964-.015-2.859-.04-4.217-.058s-3.078-.044-3.833-.058c-5.038-.1-6.089-.12-7.119-.149l-3.394-.087c-3.439-.087-8.916-.256-10.24-.318-.361-.017-1.172-.05-1.807-.073-1.686-.064-4.37-.178-5.75-.245-2.4-.116-5.574-.286-6.078-.32-.208-.015-1.073-.07-1.916-.122-1.94-.117-3.548-.224-3.833-.259-.121-.015-.416-.041-.658-.062-.706-.056-1.928-.2-2.959-.328-1.517-.108-1.833-.135-2.144-.167-.192-.02-.652-.063-1.025-.1-1.037-.1-2.69-.291-3.09-.36-.109-.02-.354-.057-.545-.082-.509-.073-1.319-.2-1.735-.277-.725-.133-1.683-.324-1.834-.364-.063-.017-.324-.08-.579-.139-.585-.133-1.07-.254-1.157-.295-.036-.016-.125-.046-.2-.069a6.824,6.824,0,0,1-1.428-.674.175.175,0,0,0-.072-.05.518.518,0,0,1-.146-.092c-.063-.05-.158-.119-.208-.155a5.707,5.707,0,0,1-1.024-1.041c-.044-.063-.126-.182-.182-.265A5.449,5.449,0,0,1,2.5,49.5a8.755,8.755,0,0,1-.83-2.611c-.092-.416-.221-1.075-.278-1.4-.03-.156-.073-.4-.1-.545-.123-.648-.235-1.355-.331-2.082-.026-.2-.073-.512-.1-.694-.053-.34-.115-.853-.2-1.635-.025-.245-.062-.566-.082-.714s-.057-.536-.082-.86S.44,38.245.422,38.1c-.03-.237-.089-.988-.165-2.131-.017-.228-.043-.741-.063-1.141s-.053-.935-.07-1.189c-.045-.628-.095-2.429-.118-4.446-.023-1.616.02-4.581.086-5.966C.178,21.359.35,18.711.419,18.1c.02-.165.06-.565.086-.892s.059-.648.068-.711.044-.384.08-.711c.073-.668.155-1.326.281-2.231.129-.935.33-2.224.38-2.413.016-.063.043-.228.063-.363s.06-.343.086-.462.073-.334.1-.48c.175-.866.42-1.923.476-2.049.017-.037.07-.185.122-.33A5.761,5.761,0,0,1,3.85,4.992a6.826,6.826,0,0,1,2.671-1.3c.02,0,.175-.04.347-.08s.433-.1.579-.139c.525-.126,1.454-.314,2-.407.155-.027.4-.073.544-.1s.371-.066.5-.082.356-.057.512-.083c.737-.126,2.489-.347,3.669-.462.28-.027.66-.063.842-.083.724-.072,1.751-.155,2.693-.211.813-.05,1.479-.089,2.081-.12.993-.1,2.011-.19,3.032-.255.066,0,.58-.035,1.149-.069s1.434-.091,1.917-.122c1.741-.111,4.818-.277,6.626-.359.515-.023,1.326-.064,1.807-.087S36.042.974,36.458.959,37.64.91,38.155.886C40.6.775,46.4.58,50.312.478,51.242.454,52.5.423,53.1.405c2.4-.064,5.8-.137,8.925-.187C68.775.108,72.455.061,77.471.03,85.816-.026,99.264,0,106.548.084c3.768.045,10.579.149,13.032.2.723.014,1.905.04,2.629.055s1.806.044,2.408.062,1.839.049,2.739.073c3.23.085,4.817.128,5.147.146.186.012,1.072.044,1.971.073,4.478.152,11.357.45,13.471.586l1.478.085c1.742.1,2.553.143,2.958.175q.874.06,1.753.117c1.188.077,2.282.166,3.3.269,1.135.058,2.584.145,3.181.2l.794.062c.218.021.545.05.727.069s.555.057.826.083c.974.1,1.454.146,1.553.165.056.013.324.05.6.082,1.351.172,3.427.509,4.065.664.149.033.3.065.446.1.526.11.771.163.893.2.175.045.352.089.528.132a6.875,6.875,0,0,1,2.532,1.134,6.562,6.562,0,0,1,1.2,1.247c.112.171.218.327.231.347a8.652,8.652,0,0,1,.533,1.189c.023.073.053.162.069.2a8.842,8.842,0,0,1,.238.926c.036.162.1.429.132.6.258,1.173.558,2.9.72,4.131.037.271.074.536.083.582.023.1.13.974.215,1.765.036.327.073.631.082.677s.04.344.067.661.056.638.066.711.046.526.082,1.009.08,1.067.1,1.3.047.75.067,1.141.049.942.066,1.223c.148,2.479.148,8.785,0,11.188-.02.271-.053.942-.083,1.487s-.063,1.117-.083,1.272-.047.525-.066.826-.05.677-.069.843-.052.565-.079.892-.063.684-.083.794-.057.413-.082.677c-.053.535-.172,1.55-.2,1.7-.009.053-.046.307-.083.562-.165,1.157-.347,2.291-.377,2.363-.009.027-.039.182-.066.347-.105.645-.4,2.01-.551,2.588a7.2,7.2,0,0,1-.393,1.115,1.78,1.78,0,0,0-.079.175,2.248,2.248,0,0,1-.169.324,1.3,1.3,0,0,0-.116.206,1.132,1.132,0,0,1-.126.188c-.066.089-.146.2-.175.247a6.515,6.515,0,0,1-.721.773,3.642,3.642,0,0,1-.611.466.937.937,0,0,0-.146.106,9.172,9.172,0,0,1-1.246.588q-.166.057-.331.116c-.089.04-.585.165-1.157.295-.254.059-.515.122-.578.139-.152.039-1.111.231-1.835.364-.661.122-1.818.3-2.66.406-.228.03-.576.076-.777.106-.7.1-2.783.3-4.2.409l-.829.061c-.943.12-2.037.25-2.523.292q-.548.049-1.1.1c-.294.035-1.938.146-3.832.259-.844.052-1.709.108-1.916.122-.5.034-3.68.2-6.079.32-2.19.108-6.024.263-8.816.359-.755.027-1.906.067-2.573.093-2.332.087-9.223.265-13.909.361-3.657.073-4.513.087-6.844.116-1.358.018-3.253.041-4.217.058-3.844.06-11.34.09-18.85.09S73.868,56.285,69.969,56.225Z" transform="translate(4.969 5.797)" fill="#0e295b"/>
  <path id="Caminho_1243" data-name="Caminho 1243" d="M-31.941,0q.684-2.682,1.755-5.67t2.583-6.48h2.5q1.6,3.744,2.664,6.7A54.489,54.489,0,0,1-20.763,0h-2.358q-.36-1.44-.738-2.808H-28.9q-.378,1.35-.738,2.808Zm3.564-4.59H-24.4q-.432-1.386-.927-2.772t-1.053-2.754q-.576,1.368-1.071,2.754T-28.377-4.59ZM-19.431,0V-12.96H-17.2V0Zm7.6.234A3.4,3.4,0,0,1-13.824-.36a3.887,3.887,0,0,1-1.332-1.683,6.4,6.4,0,0,1-.477-2.583,6.543,6.543,0,0,1,.486-2.628,3.934,3.934,0,0,1,1.359-1.719,3.475,3.475,0,0,1,2.025-.6,2.984,2.984,0,0,1,2.556,1.26V-12.96h2.232V0H-8.919l-.126-1.278A2.981,2.981,0,0,1-10.188-.171,3.333,3.333,0,0,1-11.835.234Zm.594-1.836A1.783,1.783,0,0,0-9.7-2.412a3.839,3.839,0,0,0,.567-2.232A3.964,3.964,0,0,0-9.7-6.912a1.773,1.773,0,0,0-1.539-.828,1.822,1.822,0,0,0-1.566.81,3.829,3.829,0,0,0-.576,2.25,3.872,3.872,0,0,0,.576,2.259A1.816,1.816,0,0,0-11.241-1.6ZM-.729.234A4.5,4.5,0,0,1-4.167-1.08,5.055,5.055,0,0,1-5.409-4.7a5.807,5.807,0,0,1,.531-2.556,4.055,4.055,0,0,1,1.5-1.71,4.133,4.133,0,0,1,2.25-.612A3.563,3.563,0,0,1,1.737-8.352,5.051,5.051,0,0,1,2.781-4.968V-3.96H-3.267A2.556,2.556,0,0,0-.441-1.548,4.792,4.792,0,0,0,.936-1.755a5.176,5.176,0,0,0,1.269-.567V-.54A4.237,4.237,0,0,1,.891.036,6.375,6.375,0,0,1-.729.234ZM-3.285-5.508h4a2.838,2.838,0,0,0-.54-1.737,1.688,1.688,0,0,0-1.386-.621Q-3.015-7.866-3.285-5.508ZM4.329,0V-9.342H6.561V0ZM5.445-10.746a1.332,1.332,0,0,1-.954-.378,1.242,1.242,0,0,1-.4-.936,1.234,1.234,0,0,1,.4-.945,1.35,1.35,0,0,1,.954-.369,1.341,1.341,0,0,1,.963.369,1.248,1.248,0,0,1,.387.945,1.256,1.256,0,0,1-.387.936A1.324,1.324,0,0,1,5.445-10.746ZM11.187.234a3.154,3.154,0,0,1-2.2-.747,2.527,2.527,0,0,1-.828-1.971A2.806,2.806,0,0,1,9.432-4.95a6.3,6.3,0,0,1,3.573-.864q.45,0,.792.018a1.905,1.905,0,0,0-2.16-1.98,4.515,4.515,0,0,0-2.664.882v-1.8a5.379,5.379,0,0,1,3.006-.882A3.918,3.918,0,0,1,14.9-8.541,4.049,4.049,0,0,1,15.921-5.58V0H14.067l-.126-1.08A2.823,2.823,0,0,1,12.8-.117,3.665,3.665,0,0,1,11.187.234ZM13.8-4.3q-.378-.018-.756-.018a4.186,4.186,0,0,0-2.043.4,1.285,1.285,0,0,0-.711,1.179,1.306,1.306,0,0,0,.414,1,1.543,1.543,0,0,0,1.1.387,1.911,1.911,0,0,0,1.413-.594,1.976,1.976,0,0,0,.585-1.44ZM25.155.234A4.5,4.5,0,0,1,21.717-1.08,5.055,5.055,0,0,1,20.475-4.7a5.807,5.807,0,0,1,.531-2.556,4.055,4.055,0,0,1,1.5-1.71,4.133,4.133,0,0,1,2.25-.612,3.563,3.563,0,0,1,2.862,1.224,5.051,5.051,0,0,1,1.044,3.384V-3.96H22.617a2.556,2.556,0,0,0,2.826,2.412,4.792,4.792,0,0,0,1.377-.207,5.176,5.176,0,0,0,1.269-.567V-.54a4.237,4.237,0,0,1-1.314.576A6.375,6.375,0,0,1,25.155.234ZM22.6-5.508h4a2.838,2.838,0,0,0-.54-1.737,1.688,1.688,0,0,0-1.386-.621Q22.869-7.866,22.6-5.508ZM-49.572,19.18q-3.06,0-3.06-3.186V11.386h-1.476V9.658h1.476V7.174H-50.4V9.658h2.088v1.728H-50.4V15.8q0,1.584,1.332,1.584a2.118,2.118,0,0,0,1.008-.27v1.746A3.34,3.34,0,0,1-49.572,19.18Zm6.966.054a4.5,4.5,0,0,1-3.438-1.314A5.055,5.055,0,0,1-47.286,14.3a5.807,5.807,0,0,1,.531-2.556,4.055,4.055,0,0,1,1.5-1.71A4.133,4.133,0,0,1-43,9.424a3.563,3.563,0,0,1,2.862,1.224A5.051,5.051,0,0,1-39.1,14.032V15.04h-6.048a2.556,2.556,0,0,0,2.826,2.412,4.792,4.792,0,0,0,1.377-.207,5.176,5.176,0,0,0,1.269-.567V18.46a4.237,4.237,0,0,1-1.314.576A6.375,6.375,0,0,1-42.606,19.234Zm-2.556-5.742h4a2.838,2.838,0,0,0-.54-1.737,1.688,1.688,0,0,0-1.386-.621Q-44.892,11.134-45.162,13.492ZM-37.548,19V9.658h1.962l.144,1.35a2.785,2.785,0,0,1,.927-1.125,2.241,2.241,0,0,1,1.305-.405,1.558,1.558,0,0,1,.7.144v2.052a1.758,1.758,0,0,0-.792-.162,1.794,1.794,0,0,0-1.467.675,2.811,2.811,0,0,0-.549,1.827V19Zm6.57,0V9.658h1.962l.144,1.35a2.785,2.785,0,0,1,.927-1.125,2.241,2.241,0,0,1,1.305-.405,1.558,1.558,0,0,1,.7.144v2.052a1.758,1.758,0,0,0-.792-.162,1.794,1.794,0,0,0-1.467.675,2.811,2.811,0,0,0-.549,1.827V19Zm8.874.234a3.154,3.154,0,0,1-2.2-.747,2.527,2.527,0,0,1-.828-1.971,2.806,2.806,0,0,1,1.269-2.466,6.3,6.3,0,0,1,3.573-.864q.45,0,.792.018a1.905,1.905,0,0,0-2.16-1.98,4.515,4.515,0,0,0-2.664.882v-1.8a5.379,5.379,0,0,1,3.006-.882,3.918,3.918,0,0,1,2.925,1.035A4.049,4.049,0,0,1-17.37,13.42V19h-1.854l-.126-1.08a2.823,2.823,0,0,1-1.143.963A3.665,3.665,0,0,1-22.1,19.234Zm2.61-4.536q-.378-.018-.756-.018a4.186,4.186,0,0,0-2.043.4A1.285,1.285,0,0,0-23,16.264a1.306,1.306,0,0,0,.414,1,1.543,1.543,0,0,0,1.1.387,1.911,1.911,0,0,0,1.413-.594,1.976,1.976,0,0,0,.585-1.44Zm7.128,4.3V9.658h2.232V19ZM-11.25,8.254a1.332,1.332,0,0,1-.954-.378,1.242,1.242,0,0,1-.4-.936,1.234,1.234,0,0,1,.4-.945,1.35,1.35,0,0,1,.954-.369,1.341,1.341,0,0,1,.963.369A1.248,1.248,0,0,1-9.9,6.94a1.256,1.256,0,0,1-.387.936A1.324,1.324,0,0,1-11.25,8.254ZM-8.118,19V9.658h1.962l.126,1.134A3.261,3.261,0,0,1-4.86,9.784a3.421,3.421,0,0,1,1.584-.36A2.977,2.977,0,0,1-.918,10.432a3.927,3.927,0,0,1,.882,2.682V19H-2.268V13.456a2.491,2.491,0,0,0-.45-1.611,1.579,1.579,0,0,0-1.3-.549,1.719,1.719,0,0,0-1.359.585,2.3,2.3,0,0,0-.513,1.575V19Zm13.374.234a3.4,3.4,0,0,1-1.989-.594,3.887,3.887,0,0,1-1.332-1.683,6.4,6.4,0,0,1-.477-2.583,6.543,6.543,0,0,1,.486-2.628A3.934,3.934,0,0,1,3.3,10.027a3.475,3.475,0,0,1,2.025-.6,2.984,2.984,0,0,1,2.556,1.26V6.04h2.232V19H8.172l-.126-1.278A2.981,2.981,0,0,1,6.9,18.829,3.333,3.333,0,0,1,5.256,19.234ZM5.85,17.4a1.783,1.783,0,0,0,1.539-.81,3.839,3.839,0,0,0,.567-2.232,3.964,3.964,0,0,0-.567-2.268A1.773,1.773,0,0,0,5.85,11.26a1.822,1.822,0,0,0-1.566.81,3.829,3.829,0,0,0-.576,2.25,3.872,3.872,0,0,0,.576,2.259A1.816,1.816,0,0,0,5.85,17.4ZM12.132,19V9.658h2.232V19Zm4.3-13.41L14.04,8.4H12.078L14,5.59Zm3.474,16.974a5.624,5.624,0,0,1-3.024-.792V19.9a5.175,5.175,0,0,0,1.332.612,5.049,5.049,0,0,0,1.458.216q2.7,0,2.7-2.772v-.288a3.087,3.087,0,0,1-2.646,1.278,3.475,3.475,0,0,1-1.989-.576,3.8,3.8,0,0,1-1.332-1.62A5.843,5.843,0,0,1,15.93,14.3a6.3,6.3,0,0,1,.486-2.583,3.907,3.907,0,0,1,1.377-1.692,3.651,3.651,0,0,1,2.1-.6,3.01,3.01,0,0,1,2.7,1.422l.126-1.188h1.89V17.74a4.914,4.914,0,0,1-1.215,3.582A4.653,4.653,0,0,1,19.908,22.564ZM20.34,17.2a1.779,1.779,0,0,0,1.521-.792,3.613,3.613,0,0,0,.567-2.142,3.732,3.732,0,0,0-.576-2.187,1.785,1.785,0,0,0-1.53-.819,1.841,1.841,0,0,0-1.557.792,3.631,3.631,0,0,0-.585,2.2,3.524,3.524,0,0,0,.594,2.16A1.865,1.865,0,0,0,20.34,17.2Zm10.512,2.034a4.5,4.5,0,0,1-3.438-1.314A5.055,5.055,0,0,1,26.172,14.3a5.807,5.807,0,0,1,.531-2.556,4.055,4.055,0,0,1,1.5-1.71,4.133,4.133,0,0,1,2.25-.612,3.563,3.563,0,0,1,2.862,1.224,5.051,5.051,0,0,1,1.044,3.384V15.04H28.314a2.556,2.556,0,0,0,2.826,2.412,4.792,4.792,0,0,0,1.377-.207,5.176,5.176,0,0,0,1.269-.567V18.46a4.237,4.237,0,0,1-1.314.576A6.375,6.375,0,0,1,30.852,19.234ZM28.3,13.492h4a2.838,2.838,0,0,0-.54-1.737,1.688,1.688,0,0,0-1.386-.621Q28.566,11.134,28.3,13.492ZM35.91,19V9.658h1.962L38,10.792a3.261,3.261,0,0,1,1.17-1.008,3.421,3.421,0,0,1,1.584-.36,2.977,2.977,0,0,1,2.358,1.008,3.927,3.927,0,0,1,.882,2.682V19H41.76V13.456a2.491,2.491,0,0,0-.45-1.611,1.579,1.579,0,0,0-1.3-.549,1.719,1.719,0,0,0-1.359.585,2.3,2.3,0,0,0-.513,1.575V19Zm12.636.234a3.154,3.154,0,0,1-2.2-.747,2.527,2.527,0,0,1-.828-1.971,2.806,2.806,0,0,1,1.269-2.466,6.3,6.3,0,0,1,3.573-.864q.45,0,.792.018A1.905,1.905,0,0,0,49,11.224a4.515,4.515,0,0,0-2.664.882v-1.8a5.379,5.379,0,0,1,3.006-.882,3.918,3.918,0,0,1,2.925,1.035A4.049,4.049,0,0,1,53.28,13.42V19H51.426L51.3,17.92a2.823,2.823,0,0,1-1.143.963A3.665,3.665,0,0,1,48.546,19.234Zm2.61-4.536q-.378-.018-.756-.018a4.186,4.186,0,0,0-2.043.4,1.285,1.285,0,0,0-.711,1.179,1.306,1.306,0,0,0,.414,1,1.543,1.543,0,0,0,1.1.387,1.911,1.911,0,0,0,1.413-.594,1.976,1.976,0,0,0,.585-1.44Z" transform="translate(91.704 29.092)" fill="#fff"/>
</svg>
