<svg id="Grupo_1688" data-name="Grupo 1688" xmlns="http://www.w3.org/2000/svg" width="188.219" height="67.016" viewBox="0 0 188.219 67.016">
  <path id="União_4" data-name="União 4" d="M74.139,66.909c-1.022-.017-3.03-.048-4.469-.069s-3.261-.052-4.061-.069c-5.338-.114-6.451-.143-7.543-.177l-3.6-.1c-3.643-.1-9.446-.3-10.85-.378-.383-.02-1.242-.059-1.914-.087-1.786-.076-4.631-.212-6.092-.291-2.541-.139-5.906-.34-6.44-.381-.221-.017-1.137-.083-2.031-.146-2.055-.14-3.76-.267-4.062-.309-.128-.017-.441-.049-.7-.073-.749-.066-2.043-.232-3.135-.391-1.607-.129-1.942-.161-2.271-.2-.2-.024-.691-.074-1.086-.118-1.1-.118-2.85-.346-3.274-.429-.115-.023-.375-.067-.577-.1-.539-.087-1.4-.241-1.839-.33-.768-.158-1.783-.386-1.943-.433-.067-.02-.345-.095-.613-.165a12.439,12.439,0,0,1-1.226-.351c-.038-.019-.132-.055-.209-.082a6.908,6.908,0,0,1-1.514-.8.186.186,0,0,0-.076-.059.542.542,0,0,1-.155-.11c-.066-.059-.168-.142-.22-.184a6.5,6.5,0,0,1-1.085-1.239c-.046-.075-.133-.217-.193-.315a6.589,6.589,0,0,1-.311-.61A11.336,11.336,0,0,1,1.775,55.8c-.1-.5-.234-1.279-.293-1.671-.032-.185-.077-.477-.105-.649-.13-.771-.249-1.613-.351-2.478C1,50.764.948,50.394.921,50.177.864,49.772.8,49.162.71,48.23c-.026-.292-.066-.674-.087-.85s-.06-.638-.087-1.023-.07-.845-.088-1.019C.415,45.056.353,44.163.273,42.8c-.018-.271-.046-.881-.067-1.357S.15,40.332.132,40.03c-.048-.748-.1-2.891-.125-5.291-.024-1.923.021-5.451.091-7.1.091-2.222.273-5.373.346-6.1.022-.2.063-.673.092-1.062s.063-.771.073-.846.047-.457.084-.846c.077-.795.164-1.577.3-2.655.137-1.113.351-2.646.4-2.871.017-.074.046-.271.067-.432s.063-.409.091-.55.077-.4.105-.571c.186-1.03.445-2.289.5-2.438.018-.044.074-.22.129-.393a6.937,6.937,0,0,1,1.79-2.938,6.945,6.945,0,0,1,2.83-1.55c.021,0,.185-.048.367-.095s.459-.121.613-.165c.556-.15,1.54-.374,2.118-.484.164-.032.423-.087.577-.118s.393-.078.527-.1.378-.067.543-.1c.78-.15,2.637-.413,3.887-.55.3-.032.7-.075.893-.1.767-.086,1.856-.185,2.853-.251.862-.06,1.567-.106,2.205-.142,1.052-.124,2.131-.226,3.212-.3.07,0,.614-.042,1.218-.082s1.52-.108,2.031-.146c1.845-.132,5.106-.33,7.021-.427.545-.028,1.4-.076,1.914-.1s1.3-.069,1.741-.088,1.252-.058,1.8-.087C43.017.923,49.167.69,53.31.569,54.3.541,55.631.5,56.268.482,58.81.406,62.419.319,65.725.26,72.873.129,76.773.073,82.088.035,90.929-.031,105.179,0,112.9.1c3.992.053,11.21.177,13.809.244.766.016,2.019.048,2.785.065s1.915.052,2.552.073,1.949.058,2.9.087c3.422.1,5.1.153,5.454.173.2.014,1.136.052,2.089.087,4.745.18,12.033.535,14.273.7q.781.052,1.566.1c1.845.114,2.7.17,3.134.208q.927.072,1.857.14c1.259.092,2.418.2,3.5.32,1.2.069,2.738.172,3.37.232.231.019.61.055.841.074s.577.059.77.083.588.067.875.1c1.033.114,1.541.173,1.646.2.059.015.343.059.63.1,1.432.2,3.631.606,4.307.791.158.039.315.077.473.114.557.13.816.194.946.236.186.053.373.106.56.157a6.927,6.927,0,0,1,2.683,1.349,7.474,7.474,0,0,1,1.267,1.484c.119.2.231.389.245.413A11,11,0,0,1,186,9.036c.024.087.056.193.074.236.038.091.154.6.252,1.1.038.193.1.511.14.708.273,1.4.591,3.445.763,4.916.039.323.078.638.088.693.025.122.137,1.16.228,2.1.037.389.077.751.087.806s.043.41.071.787.059.759.07.846.049.626.088,1.2.084,1.27.105,1.553.049.893.071,1.357.052,1.121.07,1.455c.157,2.95.157,10.455,0,13.314-.021.322-.056,1.121-.088,1.77s-.066,1.329-.088,1.514-.049.625-.07.983-.053.806-.074,1-.055.673-.084,1.062-.067.814-.088.945-.06.491-.087.806c-.057.637-.182,1.844-.211,2.026-.01.063-.049.366-.088.668-.175,1.377-.368,2.726-.4,2.812-.01.031-.041.216-.069.413-.112.767-.42,2.392-.585,3.079a9.3,9.3,0,0,1-.416,1.327c-.014.019-.049.117-.084.208a2.8,2.8,0,0,1-.179.385,1.6,1.6,0,0,0-.122.245,1.4,1.4,0,0,1-.133.224c-.071.106-.155.24-.186.294a7.456,7.456,0,0,1-.764.92,3.947,3.947,0,0,1-.647.554.985.985,0,0,0-.154.126,9.345,9.345,0,0,1-1.32.7q-.176.067-.35.138a12.737,12.737,0,0,1-1.226.351c-.269.07-.546.145-.612.165-.162.047-1.177.275-1.945.433-.7.145-1.926.354-2.819.483-.242.036-.61.091-.823.126-.746.117-2.948.358-4.448.487l-.878.073c-1,.143-2.159.3-2.673.348-.387.039-.775.08-1.161.121-.312.042-2.054.173-4.06.309-.895.062-1.811.128-2.031.146-.534.041-3.9.243-6.441.381-2.32.128-6.383.313-9.341.427-.8.031-2.019.079-2.726.111-2.471.1-9.773.316-14.738.43-3.876.087-4.782.1-7.252.139-1.439.021-3.446.049-4.468.069-4.073.071-12.016.107-19.973.107S78.27,66.98,74.139,66.909Z" transform="translate(0 0)" fill="#fff"/>
  <path id="União_3" data-name="União 3" d="M69.9,56.171c-.963-.015-2.856-.04-4.213-.058s-3.075-.044-3.829-.058c-5.033-.1-6.083-.12-7.112-.149l-3.391-.087c-3.436-.087-8.907-.256-10.23-.317-.361-.017-1.171-.05-1.805-.073-1.684-.064-4.366-.178-5.744-.245-2.4-.116-5.569-.286-6.072-.32-.208-.015-1.072-.07-1.914-.122-1.938-.117-3.545-.224-3.83-.259-.121-.015-.416-.041-.657-.062-.706-.056-1.926-.2-2.956-.328-1.515-.108-1.831-.135-2.142-.167-.191-.02-.651-.062-1.024-.1-1.036-.1-2.688-.291-3.087-.36-.109-.02-.354-.056-.544-.082-.508-.073-1.318-.2-1.734-.277-.724-.133-1.681-.324-1.832-.364-.063-.017-.324-.08-.578-.139-.584-.133-1.069-.254-1.156-.294-.036-.016-.125-.046-.2-.069a6.818,6.818,0,0,1-1.427-.673.175.175,0,0,0-.072-.05.517.517,0,0,1-.146-.092c-.063-.05-.158-.119-.208-.155a5.7,5.7,0,0,1-1.023-1.04c-.043-.063-.126-.182-.182-.264a5.444,5.444,0,0,1-.294-.512,8.747,8.747,0,0,1-.829-2.608c-.092-.416-.221-1.074-.277-1.4-.03-.156-.073-.4-.1-.545-.122-.648-.234-1.354-.33-2.08-.026-.2-.073-.512-.1-.694-.053-.34-.115-.852-.2-1.634-.025-.245-.062-.565-.082-.713s-.057-.536-.082-.859-.066-.709-.083-.855c-.03-.237-.089-.987-.165-2.129-.017-.228-.043-.74-.063-1.139s-.053-.934-.07-1.188c-.045-.628-.095-2.427-.118-4.441-.023-1.614.02-4.577.086-5.96.086-1.866.257-4.511.327-5.118.02-.165.06-.565.086-.891s.059-.648.068-.71.044-.383.08-.71c.073-.667.155-1.324.281-2.229.129-.934.33-2.222.38-2.411.016-.062.043-.228.063-.363s.06-.343.086-.462.073-.334.1-.479c.175-.865.419-1.921.475-2.047.017-.037.07-.185.122-.33A5.755,5.755,0,0,1,3.846,4.988a6.819,6.819,0,0,1,2.668-1.3c.02,0,.175-.04.346-.08s.433-.1.578-.139c.525-.126,1.453-.314,2-.406.155-.027.4-.073.544-.1s.371-.066.5-.082.356-.056.511-.083c.736-.126,2.487-.346,3.666-.462.279-.027.66-.063.842-.083.723-.072,1.749-.155,2.69-.21.812-.05,1.477-.089,2.079-.119.992-.1,2.009-.19,3.029-.254.066,0,.579-.035,1.148-.069s1.433-.091,1.915-.122c1.74-.111,4.813-.277,6.619-.358.514-.023,1.324-.064,1.805-.087S36.007.973,36.423.958s1.18-.049,1.7-.073C40.559.775,46.357.58,50.263.478c.93-.024,2.188-.056,2.789-.073,2.4-.064,5.8-.137,8.916-.186C68.709.108,72.386.061,77.4.029,85.733-.026,99.169,0,106.446.084c3.764.044,10.569.149,13.02.2.722.014,1.9.04,2.626.055s1.8.044,2.406.062,1.837.049,2.736.073c3.227.085,4.813.128,5.142.145.186.012,1.071.044,1.969.073,4.474.151,11.346.449,13.458.585l1.477.085c1.74.1,2.55.143,2.955.174q.874.06,1.751.117c1.187.077,2.28.166,3.3.269,1.134.058,2.582.145,3.178.2l.793.062c.217.021.544.05.726.069s.555.056.826.083c.973.1,1.453.145,1.552.165.056.013.323.05.595.082,1.35.172,3.423.509,4.061.664.149.032.3.065.446.1.525.11.77.163.892.2.175.044.352.089.528.132a6.869,6.869,0,0,1,2.53,1.133,6.555,6.555,0,0,1,1.195,1.246c.112.171.218.327.231.346a8.647,8.647,0,0,1,.532,1.188c.023.073.053.162.069.2a8.823,8.823,0,0,1,.238.925c.036.162.1.429.132.595.258,1.172.558,2.892.72,4.127.037.271.074.536.083.582.023.1.129.973.215,1.763.036.327.073.63.082.677s.04.344.067.66.056.637.066.71.046.525.082,1.008.08,1.066.1,1.3.046.749.067,1.139.049.941.066,1.222c.148,2.477.148,8.777,0,11.177-.02.27-.053.941-.083,1.486s-.063,1.116-.083,1.271-.046.524-.066.825-.05.677-.069.842-.052.565-.079.891-.063.683-.083.793-.057.412-.082.677c-.053.535-.172,1.548-.2,1.7-.009.053-.046.307-.083.561-.165,1.156-.347,2.288-.377,2.361-.009.027-.039.181-.066.346-.105.644-.4,2.008-.551,2.585a7.189,7.189,0,0,1-.393,1.114,1.778,1.778,0,0,0-.079.174,2.245,2.245,0,0,1-.169.323,1.3,1.3,0,0,0-.115.205,1.13,1.13,0,0,1-.126.188c-.066.089-.146.2-.175.247a6.511,6.511,0,0,1-.72.772,3.638,3.638,0,0,1-.611.465.936.936,0,0,0-.146.106,9.161,9.161,0,0,1-1.244.588q-.166.057-.331.115c-.089.04-.584.165-1.156.294-.254.059-.515.122-.577.139-.152.039-1.11.231-1.833.364-.66.121-1.816.3-2.658.405-.228.03-.575.076-.776.106-.7.1-2.78.3-4.193.409l-.829.061c-.942.12-2.035.25-2.521.292q-.548.049-1.094.1c-.294.035-1.936.145-3.829.259-.843.052-1.707.108-1.914.122-.5.034-3.677.2-6.073.32-2.188.108-6.018.263-8.807.358-.755.027-1.9.067-2.571.093-2.33.087-9.214.265-13.9.361-3.654.073-4.508.087-6.837.116-1.357.018-3.25.041-4.213.058-3.84.06-11.329.09-18.832.09S73.8,56.231,69.9,56.171Z" transform="translate(4.964 5.791)" fill="#0e295b"/>
  <path id="Caminho_1245" data-name="Caminho 1245" d="M1.575,0V-16.875h5.05a7.677,7.677,0,0,1,4.912,1.425,4.691,4.691,0,0,1,1.788,3.875,4.98,4.98,0,0,1-1.8,4.075,7.76,7.76,0,0,1-5.05,1.475h-1.8V0ZM6.65-14.325H4.675v5.75h1.95a4.032,4.032,0,0,0,2.612-.762,2.629,2.629,0,0,0,.937-2.162,2.516,2.516,0,0,0-.912-2.113A4.167,4.167,0,0,0,6.65-14.325ZM18.675.325a4.38,4.38,0,0,1-3.05-1.038,3.51,3.51,0,0,1-1.15-2.738,3.9,3.9,0,0,1,1.763-3.425,8.753,8.753,0,0,1,4.962-1.2q.625,0,1.1.025a2.646,2.646,0,0,0-3-2.75,6.271,6.271,0,0,0-3.7,1.225v-2.5A7.47,7.47,0,0,1,19.775-13.3a5.442,5.442,0,0,1,4.063,1.437A5.624,5.624,0,0,1,25.25-7.75V0H22.675L22.5-1.5A3.921,3.921,0,0,1,20.913-.163,5.09,5.09,0,0,1,18.675.325Zm3.625-6.3Q21.775-6,21.25-6a5.814,5.814,0,0,0-2.837.562A1.785,1.785,0,0,0,17.425-3.8,1.814,1.814,0,0,0,18-2.413a2.143,2.143,0,0,0,1.525.538A2.654,2.654,0,0,0,21.488-2.7a2.745,2.745,0,0,0,.813-2ZM27.95,0V-12.975h2.725l.2,1.875a3.869,3.869,0,0,1,1.288-1.562,3.112,3.112,0,0,1,1.813-.563,2.163,2.163,0,0,1,.975.2v2.85a2.441,2.441,0,0,0-1.1-.225,2.492,2.492,0,0,0-2.038.938,3.9,3.9,0,0,0-.763,2.538V0ZM40.275.325a4.38,4.38,0,0,1-3.05-1.038,3.51,3.51,0,0,1-1.15-2.738,3.9,3.9,0,0,1,1.763-3.425,8.753,8.753,0,0,1,4.962-1.2q.625,0,1.1.025a2.646,2.646,0,0,0-3-2.75,6.271,6.271,0,0,0-3.7,1.225v-2.5A7.47,7.47,0,0,1,41.375-13.3a5.442,5.442,0,0,1,4.063,1.437A5.624,5.624,0,0,1,46.85-7.75V0H44.275L44.1-1.5A3.921,3.921,0,0,1,42.513-.163,5.09,5.09,0,0,1,40.275.325Zm3.625-6.3Q43.375-6,42.85-6a5.814,5.814,0,0,0-2.837.562A1.785,1.785,0,0,0,39.025-3.8,1.814,1.814,0,0,0,39.6-2.413a2.143,2.143,0,0,0,1.525.538A2.654,2.654,0,0,0,43.088-2.7a2.745,2.745,0,0,0,.813-2ZM53.8,0V-12.975h2.725l.2,1.875a3.869,3.869,0,0,1,1.287-1.562,3.112,3.112,0,0,1,1.813-.563,2.163,2.163,0,0,1,.975.2v2.85a2.441,2.441,0,0,0-1.1-.225,2.492,2.492,0,0,0-2.037.938A3.9,3.9,0,0,0,56.9-6.925V0ZM68.3.325A6.254,6.254,0,0,1,63.525-1.5,7.021,7.021,0,0,1,61.8-6.525a8.065,8.065,0,0,1,.737-3.55,5.632,5.632,0,0,1,2.087-2.375,5.74,5.74,0,0,1,3.125-.85,4.949,4.949,0,0,1,3.975,1.7,7.016,7.016,0,0,1,1.45,4.7v1.4h-8.4A3.55,3.55,0,0,0,68.7-2.15a6.655,6.655,0,0,0,1.912-.287,7.189,7.189,0,0,0,1.762-.788V-.75a5.884,5.884,0,0,1-1.825.8A8.854,8.854,0,0,1,68.3.325ZM64.75-7.65H70.3a3.941,3.941,0,0,0-.75-2.413,2.344,2.344,0,0,0-1.925-.862Q65.125-10.925,64.75-7.65ZM76.125,0V-10.575h-2.05v-2.4h2.05v-.4a5.074,5.074,0,0,1,1.238-3.662,4.644,4.644,0,0,1,3.512-1.288,4.176,4.176,0,0,1,1.8.4v2.475a2.624,2.624,0,0,0-1.4-.4q-2.05,0-2.05,2.375v.5h3v2.4h-3V0Zm8.2,0V-18h3.1V0ZM96.1.325A6.254,6.254,0,0,1,91.325-1.5,7.021,7.021,0,0,1,89.6-6.525a8.065,8.065,0,0,1,.737-3.55,5.632,5.632,0,0,1,2.088-2.375,5.74,5.74,0,0,1,3.125-.85,4.949,4.949,0,0,1,3.975,1.7,7.016,7.016,0,0,1,1.45,4.7v1.4h-8.4A3.55,3.55,0,0,0,96.5-2.15a6.655,6.655,0,0,0,1.912-.287,7.189,7.189,0,0,0,1.762-.788V-.75a5.884,5.884,0,0,1-1.825.8A8.854,8.854,0,0,1,96.1.325ZM92.55-7.65H98.1a3.941,3.941,0,0,0-.75-2.413,2.344,2.344,0,0,0-1.925-.862Q92.925-10.925,92.55-7.65ZM108.175.25q-4.25,0-4.25-4.425v-6.4h-2.05v-2.4h2.05v-3.45h3.1v3.45h2.9v2.4h-2.9V-4.45q0,2.2,1.85,2.2a2.942,2.942,0,0,0,1.4-.375V-.2A4.639,4.639,0,0,1,108.175.25Zm4.25-.25V-12.975h3.1V0Zm1.55-14.925a1.85,1.85,0,0,1-1.325-.525,1.725,1.725,0,0,1-.55-1.3,1.714,1.714,0,0,1,.55-1.312,1.875,1.875,0,0,1,1.325-.513,1.863,1.863,0,0,1,1.338.513,1.734,1.734,0,0,1,.537,1.313,1.745,1.745,0,0,1-.537,1.3A1.838,1.838,0,0,1,113.975-14.925ZM118.325,0V-12.975h2.725l.2,1.875a3.869,3.869,0,0,1,1.288-1.562,3.112,3.112,0,0,1,1.813-.563,2.163,2.163,0,0,1,.975.2v2.85a2.441,2.441,0,0,0-1.1-.225,2.492,2.492,0,0,0-2.038.938,3.9,3.9,0,0,0-.762,2.538V0Z" transform="translate(46.168 42.524)" fill="#fff"/>
  <path id="União_13" data-name="União 13" d="M7.815,17.33V11.213H1.7a1.7,1.7,0,1,1,0-3.4H7.815V1.7a1.7,1.7,0,0,1,3.4,0V7.816H17.33a1.7,1.7,0,1,1,0,3.4H11.213V17.33a1.7,1.7,0,0,1-3.4,0Z" transform="translate(18.615 24.408)" fill="#fff"/>
</svg>
