<svg width="63" height="64" xmlns="http://www.w3.org/2000/svg" xmlns:xlink="http://www.w3.org/1999/xlink" xml:space="preserve" overflow="hidden"><g transform="translate(-710 -247)"><path d="M15.0938 19.0312 15.0938 32.1562 22.5816 32.1562C22.4679 36.2105 19.1496 39.4387 15.0938 39.4406L15.0938 45.0713C22.2612 45.0722 28.104 39.3228 28.2188 32.1562L28.2188 32.1562 28.2188 19.0312Z" fill="#FFFFFF" transform="matrix(-1 1.22465e-16 -1.24409e-16 -1.01587 773 311)"/><path d="M34.7812 19.0312 34.7812 32.1562 42.2691 32.1562C42.1554 36.2105 38.8371 39.4387 34.7812 39.4406L34.7812 45.0713C41.9487 45.0722 47.7915 39.3228 47.9062 32.1562L47.9062 32.1562 47.9062 19.0312Z" fill="#FFFFFF" transform="matrix(-1 1.22465e-16 -1.24409e-16 -1.01587 773 311)"/></g></svg>