<svg xmlns="http://www.w3.org/2000/svg" width="702.421" height="491.848" viewBox="0 0 702.421 491.848">
  <g id="Grupo_1576" data-name="Grupo 1576" transform="translate(-293.986 -6893.668)">
    <rect id="Retângulo_895" data-name="Retângulo 895" width="543.148" height="133.406" rx="18" transform="translate(373 7252.11)" fill="#fff"/>
    <g id="Grupo_1554" data-name="Grupo 1554" transform="translate(293.986 6893.668)">
      <g id="Grupo_1552" data-name="Grupo 1552" transform="translate(0 0)">
        <line id="Linha_55" data-name="Linha 55" y2="261.963" transform="translate(302.806 48.283)" fill="none" stroke="#707070" stroke-width="1"/>
        <line id="Linha_56" data-name="Linha 56" y2="261.963" transform="translate(491.926 47.614)" fill="none" stroke="#707070" stroke-width="1"/>
        <line id="Linha_57" data-name="Linha 57" y2="261.963" transform="translate(681.048 47.614)" fill="none" stroke="#707070" stroke-width="1"/>
        <g id="Retângulo_869" data-name="Retângulo 869" transform="translate(114.441 75.76)" fill="#0e295b" stroke="#707070" stroke-width="1">
          <rect width="478.96" height="13.62" stroke="none"/>
          <rect x="0.5" y="0.5" width="477.96" height="12.62" fill="none"/>
        </g>
        <g id="Retângulo_870" data-name="Retângulo 870" transform="translate(114.441 91.649)" fill="#f09440" stroke="#707070" stroke-width="1">
          <rect width="432.426" height="14.755" stroke="none"/>
          <rect x="0.5" y="0.5" width="431.426" height="13.755" fill="none"/>
        </g>
        <g id="Retângulo_871" data-name="Retângulo 871" transform="translate(114.441 108.673)" fill="#8696bc" stroke="#707070" stroke-width="1">
          <rect width="478.96" height="13.62" stroke="none"/>
          <rect x="0.5" y="0.5" width="477.96" height="12.62" fill="none"/>
        </g>
        <g id="Retângulo_872" data-name="Retângulo 872" transform="translate(114.441 155.207)" fill="#0e295b" stroke="#707070" stroke-width="1">
          <rect width="387.027" height="13.62" stroke="none"/>
          <rect x="0.5" y="0.5" width="386.027" height="12.62" fill="none"/>
        </g>
        <g id="Retângulo_873" data-name="Retângulo 873" transform="translate(114.441 171.097)" fill="#f09440" stroke="#707070" stroke-width="1">
          <rect width="357.517" height="14.755" stroke="none"/>
          <rect x="0.5" y="0.5" width="356.517" height="13.755" fill="none"/>
        </g>
        <g id="Retângulo_874" data-name="Retângulo 874" transform="translate(114.441 188.122)" fill="#8696bc" stroke="#707070" stroke-width="1">
          <rect width="387.027" height="14.755" stroke="none"/>
          <rect x="0.5" y="0.5" width="386.027" height="13.755" fill="none"/>
        </g>
        <g id="Retângulo_875" data-name="Retângulo 875" transform="translate(114.441 234.656)" fill="#0e295b" stroke="#707070" stroke-width="1">
          <rect width="309.848" height="13.62" stroke="none"/>
          <rect x="0.5" y="0.5" width="308.848" height="12.62" fill="none"/>
        </g>
        <g id="Retângulo_876" data-name="Retângulo 876" transform="translate(114.441 250.546)" fill="#f09440" stroke="#707070" stroke-width="1">
          <rect width="300.769" height="14.755" stroke="none"/>
          <rect x="0.5" y="0.5" width="299.769" height="13.755" fill="none"/>
        </g>
        <g id="Retângulo_877" data-name="Retângulo 877" transform="translate(114.441 267.571)" fill="#8696bc" stroke="#707070" stroke-width="1">
          <rect width="300.769" height="14.755" stroke="none"/>
          <rect x="0.5" y="0.5" width="299.769" height="13.755" fill="none"/>
        </g>
        <line id="Linha_58" data-name="Linha 58" y2="261.963" transform="translate(114.019 48.283)" fill="none" stroke="#707070" stroke-width="1"/>
        <text id="Anos_Iniciais" data-name="Anos Iniciais" transform="translate(0 93.225)" font-size="12" font-family="SegoeUI, Segoe UI"><tspan x="0" y="13">Anos Iniciais</tspan></text>
        <text id="Anos_Finais" data-name="Anos Finais" transform="translate(0 168.906)" font-size="12" font-family="SegoeUI, Segoe UI"><tspan x="0" y="13">Anos Finais</tspan></text>
        <text id="Ensino_Médio" data-name="Ensino Médio" transform="translate(0 248.431)" font-size="12" font-family="SegoeUI, Segoe UI"><tspan x="0" y="13">Ensino Médio</tspan></text>
        <text id="_5.10" data-name="5.10" transform="translate(603.194 74.596)" font-size="12" font-family="SegoeUI, Segoe UI"><tspan x="0" y="13">5.10</tspan></text>
        <text id="_4.60" data-name="4.60" transform="translate(556.085 92.054)" font-size="12" font-family="SegoeUI, Segoe UI"><tspan x="0" y="13">4.60</tspan></text>
        <text id="_5.10-2" data-name="5.10" transform="translate(603.194 107.592)" font-size="12" font-family="SegoeUI, Segoe UI"><tspan x="0" y="13">5.10</tspan></text>
        <text id="_4.10" data-name="4.10" transform="translate(509.307 153.786)" font-size="12" font-family="SegoeUI, Segoe UI"><tspan x="0" y="13">4.10</tspan></text>
        <text id="_3.80" data-name="3.80" transform="translate(475.893 171.245)" font-size="12" font-family="SegoeUI, Segoe UI"><tspan x="0" y="13">3.80</tspan></text>
        <text id="_4.10-2" data-name="4.10" transform="translate(509.307 186.782)" font-size="12" font-family="SegoeUI, Segoe UI"><tspan x="0" y="13">4.10</tspan></text>
        <text id="_3.30" data-name="3.30" transform="translate(437.389 234.397)" font-size="12" font-family="SegoeUI, Segoe UI"><tspan x="0" y="13">3.30</tspan></text>
        <text id="_3.20" data-name="3.20" transform="translate(424.357 251.855)" font-size="12" font-family="SegoeUI, Segoe UI"><tspan x="0" y="13">3.20</tspan></text>
        <text id="_3.20-2" data-name="3.20" transform="translate(424.357 267.392)" font-size="12" font-family="SegoeUI, Segoe UI"><tspan x="0" y="13">3.20</tspan></text>
        <text id="_0.00" data-name="0.00" transform="translate(105.008 313.921)" font-size="12" font-family="SegoeUI, Segoe UI"><tspan x="0" y="13">0.00</tspan></text>
        <text id="_2.00" data-name="2.00" transform="translate(296.377 313.921)" font-size="12" font-family="SegoeUI, Segoe UI"><tspan x="0" y="13">2.00</tspan></text>
        <text id="_4.00" data-name="4.00" transform="translate(476.648 313.921)" font-size="12" font-family="SegoeUI, Segoe UI"><tspan x="0" y="13">4.00</tspan></text>
        <text id="_6.00" data-name="6.00" transform="translate(664.421 313.921)" font-size="12" font-family="SegoeUI, Segoe UI"><tspan x="0" y="13">6.00</tspan></text>
        <g id="Retângulo_878" data-name="Retângulo 878" transform="translate(243.166)" fill="#0e295b" stroke="#707070" stroke-width="1">
          <rect width="14.034" height="14.034" stroke="none"/>
          <rect x="0.5" y="0.5" width="13.034" height="13.034" fill="none"/>
        </g>
        <g id="Retângulo_879" data-name="Retângulo 879" transform="translate(325.362)" fill="#f09440" stroke="#707070" stroke-width="1">
          <rect width="14.034" height="14.034" stroke="none"/>
          <rect x="0.5" y="0.5" width="13.034" height="13.034" fill="none"/>
        </g>
        <g id="Retângulo_880" data-name="Retângulo 880" transform="translate(415.579)" fill="#8696bc" stroke="#707070" stroke-width="1">
          <rect width="14.034" height="14.034" stroke="none"/>
          <rect x="0.5" y="0.5" width="13.034" height="13.034" fill="none"/>
        </g>
        <text id="Branca" transform="translate(263.213)" font-size="12" font-family="SegoeUI, Segoe UI"><tspan x="0" y="13">Branca</tspan></text>
        <text id="Preta" transform="translate(345.411)" font-size="12" font-family="SegoeUI, Segoe UI"><tspan x="0" y="13">Preta</tspan></text>
        <text id="Preta_Parda" data-name="Preta + Parda" transform="translate(433.622)" font-size="12" font-family="SegoeUI, Segoe UI"><tspan x="0" y="13">Preta + Parda</tspan></text>
      </g>
      <g id="Grupo_1550" data-name="Grupo 1550" transform="translate(78.8 356.857)">
        <path id="Retângulo_894" data-name="Retângulo 894" d="M14,0H529.974a14,14,0,0,1,14,14V34.75a0,0,0,0,1,0,0H0a0,0,0,0,1,0,0V14A14,14,0,0,1,14,0Z" transform="translate(0)" fill="#aaa8a8"/>
        <g id="Retângulo_893" data-name="Retângulo 893" transform="translate(0)" fill="none" stroke="#707070" stroke-width="2">
          <rect width="543.974" height="134.991" rx="14" stroke="none"/>
          <rect x="1" y="1" width="541.974" height="132.991" rx="13" fill="none"/>
        </g>
        <line id="Linha_66" data-name="Linha 66" y2="134.657" transform="translate(137.999 0.334)" fill="none" stroke="#707070" stroke-width="2"/>
        <line id="Linha_67" data-name="Linha 67" y2="134.657" transform="translate(271.987 0.334)" fill="none" stroke="#707070" stroke-width="2"/>
        <line id="Linha_68" data-name="Linha 68" y2="134.657" transform="translate(406.644 0.334)" fill="none" stroke="#707070" stroke-width="2"/>
        <line id="Linha_69" data-name="Linha 69" x2="543.64" transform="translate(0.334 67.83)" fill="none" stroke="#707070" stroke-width="2"/>
        <line id="Linha_70" data-name="Linha 70" x2="543.64" transform="translate(0.334 101.911)" fill="none" stroke="#707070" stroke-width="2"/>
        <line id="Linha_65" data-name="Linha 65" x1="543.64" transform="translate(0.334 34.416)" fill="none" stroke="#707070" stroke-width="2"/>
        <text id="Branca-2" data-name="Branca" transform="translate(17.378 48.283)" fill="#49619a" font-size="12" font-family="SegoeUI-Bold, Segoe UI" font-weight="700"><tspan x="0" y="13">Branca</tspan></text>
        <text id="Preta-2" data-name="Preta" transform="translate(17.378 79.023)" fill="#f09440" font-size="12" font-family="SegoeUI-Bold, Segoe UI" font-weight="700"><tspan x="0" y="13">Preta</tspan></text>
        <text id="Preta_Parda-2" data-name="Preta + Parda" transform="translate(17.378 109.763)" fill="#8696bc" font-size="12" font-family="SegoeUI-Bold, Segoe UI" font-weight="700"><tspan x="0" y="13">Preta + Parda</tspan></text>
        <text id="Anos_Iniciais-2" data-name="Anos Iniciais" transform="translate(156.877 11.528)" fill="#fff" font-size="12" font-family="SegoeUI-Bold, Segoe UI" font-weight="700"><tspan x="10.401" y="13">Anos Iniciais</tspan></text>
        <text id="Anos_Finais-2" data-name="Anos Finais" transform="translate(294.71 11.194)" fill="#fff" font-size="12" font-family="SegoeUI-Bold, Segoe UI" font-weight="700"><tspan x="13.767" y="13">Anos Finais</tspan></text>
        <text id="Ensino_Médio-2" data-name="Ensino Médio" transform="translate(426.44 10.693)" fill="#fff" font-size="12" font-family="SegoeUI-Bold, Segoe UI" font-weight="700"><tspan x="0" y="13">Ensino Médio</tspan></text>
        <text id="_5.1" data-name="5.1" transform="translate(156.427 46.911)" font-size="12" font-family="SegoeUI, Segoe UI"><tspan x="-7.77" y="13">5.1</tspan></text>
        <text id="_4.1" data-name="4.1" transform="translate(292.038 46.612)" font-size="12" font-family="SegoeUI, Segoe UI"><tspan x="-7.77" y="13">4.1</tspan></text>
        <text id="_3.3" data-name="3.3" transform="translate(422.011 46.911)" font-size="12" font-family="SegoeUI, Segoe UI"><tspan x="-7.77" y="13">3.3</tspan></text>
        <text id="_4.6" data-name="4.6" transform="translate(156.877 77.854)" font-size="12" font-family="SegoeUI, Segoe UI"><tspan x="-7.77" y="13">4.6</tspan></text>
        <text id="_3.8" data-name="3.8" transform="translate(292.038 77.854)" font-size="12" font-family="SegoeUI, Segoe UI"><tspan x="-7.77" y="13">3.8</tspan></text>
        <text id="_3.2" data-name="3.2" transform="translate(422.181 77.854)" font-size="12" font-family="SegoeUI, Segoe UI"><tspan x="-7.77" y="13">3.2</tspan></text>
        <text id="_5.1-2" data-name="5.1" transform="translate(156.877 109.095)" font-size="12" font-family="SegoeUI, Segoe UI"><tspan x="-7.77" y="13">5.1</tspan></text>
        <text id="_4.0" data-name="4.0" transform="translate(292.038 109.095)" font-size="12" font-family="SegoeUI, Segoe UI"><tspan x="-7.77" y="13">4.0</tspan></text>
        <text id="_3.2-2" data-name="3.2" transform="translate(422.181 109.095)" font-size="12" font-family="SegoeUI, Segoe UI"><tspan x="-7.77" y="13">3.2</tspan></text>
      </g>
    </g>
  </g>
</svg>
