<svg xmlns="http://www.w3.org/2000/svg" width="957.772" height="529.455" viewBox="0 0 957.772 529.455">
  <g id="Grupo_1577" data-name="Grupo 1577" transform="translate(8966.25 1343.455)">
    <rect id="Retângulo_942" data-name="Retângulo 942" width="586" height="144" rx="13" transform="translate(-8781 -958)" fill="#fff"/>
    <g id="Grupo_1555" data-name="Grupo 1555" transform="translate(-8966.25 -1343.455)">
      <g id="Grupo_1551" data-name="Grupo 1551" transform="translate(185.161 384.562)">
        <path id="Retângulo_894" data-name="Retângulo 894" d="M13,0H573.685a13,13,0,0,1,13,13V36.744a0,0,0,0,1,0,0H0a0,0,0,0,1,0,0V13A13,13,0,0,1,13,0Z" transform="translate(0 0.212)" fill="#aaa8a8"/>
        <g id="Retângulo_893" data-name="Retângulo 893" transform="translate(0 0.212)" fill="none" stroke="#707070" stroke-width="2">
          <rect width="586.685" height="144.528" rx="14" stroke="none"/>
          <rect x="1" y="1" width="584.685" height="142.528" rx="13" fill="none"/>
        </g>
        <line id="Linha_66" data-name="Linha 66" y2="144.74" transform="translate(148.891)" fill="none" stroke="#707070" stroke-width="2"/>
        <line id="Linha_67" data-name="Linha 67" y2="144.74" transform="translate(293.486)" fill="none" stroke="#707070" stroke-width="2"/>
        <line id="Linha_68" data-name="Linha 68" y2="144.74" transform="translate(438.801)" fill="none" stroke="#707070" stroke-width="2"/>
        <line id="Linha_69" data-name="Linha 69" x2="586.355" transform="translate(0.331 72.837)" fill="none" stroke="#707070" stroke-width="2"/>
        <line id="Linha_70" data-name="Linha 70" x2="586.355" transform="translate(0.331 109.618)" fill="none" stroke="#707070" stroke-width="2"/>
        <line id="Linha_65" data-name="Linha 65" x1="586.355" transform="translate(0.331 36.779)" fill="none" stroke="#707070" stroke-width="2"/>
        <text id="Branca" transform="translate(25.975 47.417)" fill="#0e295b" font-size="12" font-family="SegoeUI-Bold, Segoe UI" font-weight="700"><tspan x="0" y="13">Branca</tspan></text>
        <text id="Preta" transform="translate(25.975 82.754)" fill="#ed770c" font-size="12" font-family="SegoeUI-Bold, Segoe UI" font-weight="700"><tspan x="0" y="13">Preta</tspan></text>
        <text id="Preta_Parda" data-name="Preta + Parda" transform="translate(25.975 118.994)" fill="#8696bc" font-size="12" font-family="SegoeUI-Bold, Segoe UI" font-weight="700"><tspan x="0" y="13">Preta + Parda</tspan></text>
        <text id="Anos_Iniciais" data-name="Anos Iniciais" transform="translate(165.339 10.638)" fill="#fff" font-size="12" font-family="SegoeUI-Bold, Segoe UI" font-weight="700"><tspan x="14.011" y="13">Anos Iniciais</tspan></text>
        <text id="Anos_Finais" data-name="Anos Finais" transform="translate(310.653 10.638)" fill="#fff" font-size="12" font-family="SegoeUI-Bold, Segoe UI" font-weight="700"><tspan x="17.377" y="13">Anos Finais</tspan></text>
        <text id="Ensino_Médio" data-name="Ensino Médio" transform="translate(462.82 10.638)" fill="#fff" font-size="12" font-family="SegoeUI-Bold, Segoe UI" font-weight="700"><tspan x="0" y="13">Ensino Médio</tspan></text>
        <text id="_6.4" data-name="6.4" transform="translate(169.044 45.614)" font-size="12" font-family="SegoeUI, Segoe UI"><tspan x="-7.77" y="13">6.4</tspan></text>
        <text id="_5.0" data-name="5.0" transform="translate(316.702 45.614)" font-size="12" font-family="SegoeUI, Segoe UI"><tspan x="-7.77" y="13">5.0</tspan></text>
        <text id="_4.1" data-name="4.1" transform="translate(458.953 45.614)" font-size="12" font-family="SegoeUI, Segoe UI"><tspan x="-7.77" y="13">4.1</tspan></text>
        <text id="_5.1" data-name="5.1" transform="translate(169.044 81.493)" font-size="12" font-family="SegoeUI, Segoe UI"><tspan x="-7.77" y="13">5.1</tspan></text>
        <text id="_4.2" data-name="4.2" transform="translate(316.702 81.493)" font-size="12" font-family="SegoeUI, Segoe UI"><tspan x="-7.77" y="13">4.2</tspan></text>
        <text id="_3.6" data-name="3.6" transform="translate(458.953 81.493)" font-size="12" font-family="SegoeUI, Segoe UI"><tspan x="-7.77" y="13">3.6</tspan></text>
        <text id="_5.9" data-name="5.9" transform="translate(169.044 118.272)" font-size="12" font-family="SegoeUI, Segoe UI"><tspan x="-7.77" y="13">5.9</tspan></text>
        <text id="_4.6" data-name="4.6" transform="translate(316.702 118.272)" font-size="12" font-family="SegoeUI, Segoe UI"><tspan x="-7.77" y="13">4.6</tspan></text>
        <text id="_3.6-2" data-name="3.6" transform="translate(458.953 118.272)" font-size="12" font-family="SegoeUI, Segoe UI"><tspan x="-7.77" y="13">3.6</tspan></text>
      </g>
      <g id="Grupo_1553" data-name="Grupo 1553" transform="translate(0 0)">
        <line id="Linha_59" data-name="Linha 59" y2="282.698" transform="translate(330.656 52.105)" fill="none" stroke="#707070" stroke-width="1"/>
        <line id="Linha_60" data-name="Linha 60" y2="282.698" transform="translate(534.746 51.383)" fill="none" stroke="#707070" stroke-width="1"/>
        <line id="Linha_61" data-name="Linha 61" y2="282.698" transform="translate(738.836 51.383)" fill="none" stroke="#707070" stroke-width="1"/>
        <g id="Retângulo_881" data-name="Retângulo 881" transform="translate(127.381 81.021)" fill="#0e295b" stroke="#707070" stroke-width="1">
          <rect width="662.624" height="15.923" stroke="none"/>
          <rect x="0.5" y="0.5" width="661.624" height="14.923" fill="none"/>
        </g>
        <g id="Retângulo_882" data-name="Retângulo 882" transform="translate(127.381 99.393)" fill="#f09440" stroke="#707070" stroke-width="1">
          <rect width="516.871" height="14.698" stroke="none"/>
          <rect x="0.5" y="0.5" width="515.871" height="13.698" fill="none"/>
        </g>
        <g id="Retângulo_883" data-name="Retângulo 883" transform="translate(127.381 117.765)" fill="#8696bc" stroke="#707070" stroke-width="1">
          <rect width="602.608" height="14.698" stroke="none"/>
          <rect x="0.5" y="0.5" width="601.608" height="13.698" fill="none"/>
        </g>
        <g id="Retângulo_884" data-name="Retângulo 884" transform="translate(127.381 166.757)" fill="#0e295b" stroke="#707070" stroke-width="1">
          <rect width="505.848" height="15.923" stroke="none"/>
          <rect x="0.5" y="0.5" width="504.848" height="14.923" fill="none"/>
        </g>
        <g id="Retângulo_885" data-name="Retângulo 885" transform="translate(127.381 185.13)" fill="#f09440" stroke="#707070" stroke-width="1">
          <rect width="422.56" height="14.698" stroke="none"/>
          <rect x="0.5" y="0.5" width="421.56" height="13.698" fill="none"/>
        </g>
        <g id="Retângulo_886" data-name="Retângulo 886" transform="translate(127.381 203.501)" fill="#8696bc" stroke="#707070" stroke-width="1">
          <rect width="471.553" height="14.698" stroke="none"/>
          <rect x="0.5" y="0.5" width="470.553" height="13.698" fill="none"/>
        </g>
        <g id="Retângulo_887" data-name="Retângulo 887" transform="translate(127.381 252.495)" fill="#0e295b" stroke="#707070" stroke-width="1">
          <rect width="413.987" height="15.923" stroke="none"/>
          <rect x="0.5" y="0.5" width="412.987" height="14.923" fill="none"/>
        </g>
        <g id="Retângulo_888" data-name="Retângulo 888" transform="translate(127.381 270.866)" fill="#f09440" stroke="#707070" stroke-width="1">
          <rect width="369.893" height="14.698" stroke="none"/>
          <rect x="0.5" y="0.5" width="368.893" height="13.698" fill="none"/>
        </g>
        <g id="Retângulo_889" data-name="Retângulo 889" transform="translate(127.381 289.239)" fill="#8696bc" stroke="#707070" stroke-width="1">
          <rect width="369.893" height="14.698" stroke="none"/>
          <rect x="0.5" y="0.5" width="368.893" height="13.698" fill="none"/>
        </g>
        <line id="Linha_62" data-name="Linha 62" y2="282.698" transform="translate(126.926 52.105)" fill="none" stroke="#707070" stroke-width="1"/>
        <text id="Anos_Iniciais-2" data-name="Anos Iniciais" transform="translate(0 100.604)" font-size="12" font-family="SegoeUI, Segoe UI"><tspan x="0" y="13">Anos Iniciais</tspan></text>
        <text id="Anos_Finais-2" data-name="Anos Finais" transform="translate(0 182.276)" font-size="12" font-family="SegoeUI, Segoe UI"><tspan x="0" y="13">Anos Finais</tspan></text>
        <text id="Ensino_Médio-2" data-name="Ensino Médio" transform="translate(0 268.095)" font-size="12" font-family="SegoeUI, Segoe UI"><tspan x="0" y="13">Ensino Médio</tspan></text>
        <text id="_6.40" data-name="6.40" transform="translate(800.496 80.5)" font-size="12" font-family="SegoeUI, Segoe UI"><tspan x="0" y="13">6.40</tspan></text>
        <text id="_5.10" data-name="5.10" transform="translate(654.82 99.34)" font-size="12" font-family="SegoeUI, Segoe UI"><tspan x="0" y="13">5.10</tspan></text>
        <text id="_5.90" data-name="5.90" transform="translate(749.659 116.109)" font-size="12" font-family="SegoeUI, Segoe UI"><tspan x="0" y="13">5.90</tspan></text>
        <text id="_5.00" data-name="5.00" transform="translate(644.724 165.959)" font-size="12" font-family="SegoeUI, Segoe UI"><tspan x="0" y="13">5.00</tspan></text>
        <text id="_4.20" data-name="4.20" transform="translate(563.238 184.799)" font-size="12" font-family="SegoeUI, Segoe UI"><tspan x="0" y="13">4.20</tspan></text>
        <text id="_4.60" data-name="4.60" transform="translate(603.983 201.566)" font-size="12" font-family="SegoeUI, Segoe UI"><tspan x="0" y="13">4.60</tspan></text>
        <text id="_4.10" data-name="4.10" transform="translate(550.251 252.95)" font-size="12" font-family="SegoeUI, Segoe UI"><tspan x="0" y="13">4.10</tspan></text>
        <text id="_3.60" data-name="3.60" transform="translate(502.218 271.79)" font-size="12" font-family="SegoeUI, Segoe UI"><tspan x="0" y="13">3.60</tspan></text>
        <text id="_3.60-2" data-name="3.60" transform="translate(502.218 288.557)" font-size="12" font-family="SegoeUI, Segoe UI"><tspan x="0" y="13">3.60</tspan></text>
        <text id="_0.00" data-name="0.00" transform="translate(113.32 338.769)" font-size="12" font-family="SegoeUI, Segoe UI"><tspan x="0" y="13">0.00</tspan></text>
        <text id="_2.00" data-name="2.00" transform="translate(319.838 338.769)" font-size="12" font-family="SegoeUI, Segoe UI"><tspan x="0" y="13">2.00</tspan></text>
        <text id="_4.00" data-name="4.00" transform="translate(514.376 338.769)" font-size="12" font-family="SegoeUI, Segoe UI"><tspan x="0" y="13">4.00</tspan></text>
        <text id="_6.00" data-name="6.00" transform="translate(720.894 338.769)" font-size="12" font-family="SegoeUI, Segoe UI"><tspan x="0" y="13">6.00</tspan></text>
        <g id="Retângulo_890" data-name="Retângulo 890" transform="translate(266.295)" fill="#0e295b" stroke="#707070" stroke-width="1">
          <rect width="15.145" height="15.145" stroke="none"/>
          <rect x="0.5" y="0.5" width="14.145" height="14.145" fill="none"/>
        </g>
        <g id="Retângulo_891" data-name="Retângulo 891" transform="translate(354.997)" fill="#f09440" stroke="#707070" stroke-width="1">
          <rect width="15.145" height="15.145" stroke="none"/>
          <rect x="0.5" y="0.5" width="14.145" height="14.145" fill="none"/>
        </g>
        <g id="Retângulo_892" data-name="Retângulo 892" transform="translate(452.355)" fill="#8696bc" stroke="#707070" stroke-width="1">
          <rect width="15.145" height="15.145" stroke="none"/>
          <rect x="0.5" y="0.5" width="14.145" height="14.145" fill="none"/>
        </g>
        <text id="Branca-2" data-name="Branca" transform="translate(287.929)" font-size="12" font-family="SegoeUI, Segoe UI"><tspan x="0" y="13">Branca</tspan></text>
        <text id="Preta-2" data-name="Preta" transform="translate(376.633)" font-size="12" font-family="SegoeUI, Segoe UI"><tspan x="0" y="13">Preta</tspan></text>
        <text id="Preta_Parda-2" data-name="Preta + Parda" transform="translate(471.827)" font-size="12" font-family="SegoeUI, Segoe UI"><tspan x="0" y="13">Preta + Parda</tspan></text>
        <line id="Linha_63" data-name="Linha 63" y2="282.698" transform="translate(934.715 51.383)" fill="none" stroke="#707070" stroke-width="1"/>
        <text id="_8.00" data-name="8.00" transform="translate(916.772 338.769)" font-size="12" font-family="SegoeUI, Segoe UI"><tspan x="0" y="13">8.00</tspan></text>
      </g>
    </g>
  </g>
</svg>
